<svg xmlns="http://www.w3.org/2000/svg" xmlns:xlink="http://www.w3.org/1999/xlink" viewBox="0 0 359.78 72.19" width="122" height="24"><defs><style>.cls-1{fill:none;}.cls-2{clip-path:url(#clip-path);}.cls-3{fill:#231916;}</style><clipPath id="clip-path" transform="translate(0 0)"><rect class="cls-1" width="359.78" height="72.19"/></clipPath></defs><title>header-1-title</title><g class="cls-2"><path class="cls-3" d="M335.17,39.73l0-.28L336.06,26h21.76V20.23H330.43l-1.84,25.53,14.12.38c6.62,0,10.89,3.82,10.89,9.73s-4.33,9.66-11,9.66c-5.71,0-9.78-2.71-11.23-7.44l-5.27,3c2.31,6.51,8.61,10.54,16.5,10.54,8.29,0,17.22-4.93,17.22-15.76S351,40.11,342.86,40.11Z" transform="translate(0 0)"/><path class="cls-3" d="M56.39,19.48C41,19.48,30.79,31.1,30.79,45.78,30.79,60.26,40.28,72,56.18,72c10.5,0,17.95-4.79,22.33-12.34L72.8,56c-3.47,5.91-8.36,9.89-16.62,9.89-11,0-18.66-8.57-18.76-19H80V45.07c-.1-16.21-10.6-25.59-23.66-25.59M37.63,41.09a18.7,18.7,0,0,1,18.56-15.5c8.87,0,16,5.91,17.23,15.5Z" transform="translate(0 0)"/><polygon class="cls-3" points="0 20.39 0 71.38 6.63 71.38 6.63 26.51 30.59 26.51 30.59 20.39 0 20.39"/><path class="cls-3" d="M293.82,45.07c-.1-16.21-10.61-25.59-23.66-25.59-15.4,0-25.59,11.62-25.59,26.31C244.57,60.26,254.06,72,270,72c10.5,0,17.95-4.79,22.33-12.34L286.58,56c-3.47,5.91-8.36,9.89-16.62,9.89-11,0-18.66-8.57-18.76-19h42.62Zm-42.42-4A18.7,18.7,0,0,1,270,25.59c8.87,0,16,5.91,17.23,15.5Z" transform="translate(0 0)"/><path class="cls-3" d="M219.07,19.68c-7,0-13.36,3.16-17,9.18-2.75-5.3-7.75-9.18-15.6-9.18-6,0-11.52,2.35-15,7.44V20.39h-6.63V71.28h6.63V38.44c0-7.65,6.93-12.64,13.46-12.64,8.36,0,12.85,6.22,12.85,14.48v31h6.63v-32c0-9.89,7.24-13.46,13.66-13.46C226.2,25.8,231,32,231,40.28v31h6.63v-31c0-12.54-6.83-20.6-18.56-20.6" transform="translate(0 0)"/><path class="cls-3" d="M129.33,26.41a24.65,24.65,0,0,0-17.13-6.73c-15.09,0-25.8,11.42-25.8,26.31s10.71,26.2,25.8,26.2a24.21,24.21,0,0,0,17.13-6.73v5.91h6.52V20.5h-6.52ZM111.8,65.56C100.78,65.56,93,56.8,93,46s7.75-19.68,18.76-19.68S130.35,34.06,130.35,46s-7.54,19.58-18.56,19.58" transform="translate(0 0)"/><rect class="cls-3" x="147.02" width="6.63" height="71.28"/></g></svg>