<svg id="Слой_1" data-name="Слой 1" xmlns="http://www.w3.org/2000/svg" xmlns:xlink="http://www.w3.org/1999/xlink" viewBox="0 0 454.05 72.19"><defs><style>.cls-1{fill:none;}.cls-2{clip-path:url(#clip-path);}.cls-3{fill:#231916;}</style><clipPath id="clip-path" transform="translate(0 0)"><rect class="cls-1" width="454.05" height="72.19"/></clipPath></defs><title>header-2-title</title><g class="cls-2"><path class="cls-3" d="M335.17,39.73l0-.28L336.06,26h21.76V20.23H330.43l-1.84,25.53,14.12.38c6.62,0,10.89,3.82,10.89,9.73s-4.33,9.66-11,9.66c-5.71,0-9.78-2.71-11.23-7.44l-5.27,3c2.31,6.51,8.61,10.54,16.5,10.54,8.29,0,17.22-4.93,17.22-15.76S351,40.11,342.86,40.11Z" transform="translate(0 0)"/><path class="cls-3" d="M56.39,19.48C41,19.48,30.79,31.1,30.79,45.78,30.79,60.26,40.28,72,56.18,72c10.5,0,17.95-4.79,22.33-12.34L72.8,56c-3.47,5.91-8.36,9.89-16.62,9.89-11,0-18.66-8.57-18.76-19H80V45.07c-.1-16.21-10.6-25.59-23.66-25.59M37.63,41.09a18.7,18.7,0,0,1,18.56-15.5c8.87,0,16,5.91,17.23,15.5Z" transform="translate(0 0)"/><polygon class="cls-3" points="0 20.39 0 71.38 6.63 71.38 6.63 26.51 30.59 26.51 30.59 20.39 0 20.39"/><path class="cls-3" d="M293.82,45.07c-.1-16.21-10.61-25.59-23.66-25.59-15.4,0-25.59,11.62-25.59,26.31C244.57,60.26,254.06,72,270,72c10.5,0,17.95-4.79,22.33-12.34L286.58,56c-3.47,5.91-8.36,9.89-16.62,9.89-11,0-18.66-8.57-18.76-19h42.62Zm-42.42-4A18.7,18.7,0,0,1,270,25.59c8.87,0,16,5.91,17.23,15.5Z" transform="translate(0 0)"/><path class="cls-3" d="M219.07,19.68c-7,0-13.36,3.16-17,9.18-2.75-5.3-7.75-9.18-15.6-9.18-6,0-11.52,2.35-15,7.44V20.39h-6.63V71.28h6.63V38.44c0-7.65,6.93-12.64,13.46-12.64,8.36,0,12.85,6.22,12.85,14.48v31h6.63v-32c0-9.89,7.24-13.46,13.66-13.46C226.2,25.8,231,32,231,40.28v31h6.63v-31c0-12.54-6.83-20.6-18.56-20.6" transform="translate(0 0)"/><path class="cls-3" d="M129.33,26.41a24.65,24.65,0,0,0-17.13-6.73c-15.09,0-25.8,11.42-25.8,26.31s10.71,26.2,25.8,26.2a24.21,24.21,0,0,0,17.13-6.73v5.91h6.52V20.5h-6.52ZM111.8,65.56C100.78,65.56,93,56.8,93,46s7.75-19.68,18.76-19.68S130.35,34.06,130.35,46s-7.54,19.58-18.56,19.58" transform="translate(0 0)"/><rect class="cls-3" x="147.02" width="6.63" height="71.28"/><path class="cls-3" d="M395.92,31h-9.22V58.58h3.46V47.26h5.76c5.45,0,9.26-3.33,9.26-8.11S401.37,31,395.92,31m0,13h-5.76V34.23h5.76c3.55,0,5.76,1.89,5.76,4.93S399.48,44,395.92,44" transform="translate(0 0)"/><path class="cls-3" d="M412.08,41.19V39h-3.23V58.58h3.23V45.93c.73-2.72,2.29-3.93,5.06-3.93h2V38.83h-1.65a6.87,6.87,0,0,0-5.37,2.36" transform="translate(0 0)"/><path class="cls-3" d="M430.6,38.63A10.16,10.16,0,1,0,441,48.8,10,10,0,0,0,430.6,38.63m0,17.34a6.89,6.89,0,0,1-7.08-7.17,7.08,7.08,0,1,1,14.15,0A6.89,6.89,0,0,1,430.6,56" transform="translate(0 0)"/><path class="cls-3" d="M444.39,19.51H381.93a9.67,9.67,0,0,0-9.66,9.66V60.8a9.67,9.67,0,0,0,9.66,9.66h62.46a9.68,9.68,0,0,0,9.67-9.66V29.17a9.67,9.67,0,0,0-9.67-9.66m-68.65,9.66a6.21,6.21,0,0,1,6.2-6.2h62.46a6.21,6.21,0,0,1,6.2,6.2V60.8a6.21,6.21,0,0,1-6.2,6.2H381.93a6.21,6.21,0,0,1-6.2-6.2Z" transform="translate(0 0)"/></g></svg>