<?xml version="1.0" encoding="UTF-8"?>
<svg width="70px" height="70px" viewBox="0 0 70 70" version="1.1" xmlns="http://www.w3.org/2000/svg" xmlns:xlink="http://www.w3.org/1999/xlink">
    <!-- Generator: Sketch 54.1 (76490) - https://sketchapp.com -->
    <title>icon</title>
    <desc>Created with Sketch.</desc>
    <g id="pc-最终" stroke="none" stroke-width="1" fill="none" fill-rule="evenodd">
        <g id="车厘子-pc" transform="translate(-925.000000, -11614.000000)">
            <g id="13-视频" transform="translate(0.000000, 11274.000000)">
                <g id="icon" transform="translate(927.000000, 342.000000)">
                    <circle id="椭圆形" stroke="#FFFFFF" stroke-width="4" cx="33" cy="33" r="33"></circle>
                    <path d="M39.3177299,24.9683756 L48.1652634,41.0352631 C48.6980729,42.002831 48.3456315,43.2191273 47.3780636,43.7519368 C47.0825524,43.9146656 46.7506802,44 46.4133266,44 L27.4251869,44 C26.3206174,44 25.4251869,43.1045695 25.4251869,42 C25.4251869,41.6221621 25.5322166,41.2520531 25.7338812,40.9325334 L35.8744873,24.865646 C36.4640328,23.9315636 37.6991773,23.6522613 38.6332596,24.2418068 C38.919159,24.422252 39.1546502,24.6722272 39.3177299,24.9683756 Z" id="三角形" fill="#FFFFFF" transform="translate(36.797852, 33.000000) rotate(-270.000000) translate(-36.797852, -33.000000) "></path>
                </g>
            </g>
        </g>
    </g>
</svg>